<?xml version="1.0" standalone="no"?><!DOCTYPE svg PUBLIC "-//W3C//DTD SVG 1.1//EN" "http://www.w3.org/Graphics/SVG/1.1/DTD/svg11.dtd"><svg t="1700117746185" class="icon" viewBox="0 0 1024 1024" version="1.1" xmlns="http://www.w3.org/2000/svg" p-id="4801" xmlns:xlink="http://www.w3.org/1999/xlink" width="200" height="200"><path d="M512 0c282.779826 0 512 229.220174 512 512S794.779826 1024 512 1024 0 794.779826 0 512 229.220174 0 512 0z m11.130435 333.913043c-0.823652 0-1.647304 0.044522-2.448696 0.111305l-0.311652 0.044522-0.845913 0.111304-0.601044 0.089043-0.556521 0.089044a25.132522 25.132522 0 0 0-0.734609 0.155826l-0.378435 0.089043a21.949217 21.949217 0 0 0-0.845913 0.222609l-0.289391 0.089044a23.017739 23.017739 0 0 0-0.868174 0.26713c-0.089043 0-0.155826 0.044522-0.222609 0.066783l-0.890435 0.333913-0.222608 0.066782a21.23687 21.23687 0 0 0-0.890435 0.400696l-0.178087 0.066783-0.957217 0.445217-0.111305 0.066783a25.822609 25.822609 0 0 0-6.233043 4.541217l-209.029565 201.906087a22.928696 22.928696 0 0 0 0 33.213217c9.505391 9.171478 24.932174 9.171478 34.437565 0l167.869217-162.125913v363.698087c0 12.109913 9.48313 22.105043 21.659826 23.373913l2.604522 0.155826 2.604522-0.133565c12.176696-1.29113 21.593043-11.286261 21.593043-23.396174v-363.742608l167.980522 162.05913a24.932174 24.932174 0 0 0 34.459826-0.111304 22.79513 22.79513 0 0 0 0.022261-33.124174l-209.408-202.128696A24.709565 24.709565 0 0 0 523.130435 333.913043z m232.358956-89.043478H268.510609c-13.06713 0-23.641043 9.97287-23.641044 22.26087s10.573913 22.26087 23.641044 22.260869h486.978782c13.06713 0 23.641043-9.97287 23.641044-22.260869s-10.573913-22.26087-23.641044-22.26087z" fill="#2196F3" p-id="4802"></path></svg>