<svg width="450" height="240" viewBox="0 0 450 240" fill="none" xmlns="http://www.w3.org/2000/svg">
<g id="404" clip-path="url(#clip0_119_5140)">
<path id="Subtract" d="M0.000412465 239.925H450C450 239.886 450 239.848 450 239.809C450 206.736 349.264 179.925 225 179.925C100.736 179.925 0 206.736 0 239.809C0 239.848 0.000137529 239.886 0.000412465 239.925Z" fill="url(#paint0_linear_119_5140)"/>
<path id="Vector" d="M48.849 19.6498L92.5272 9.92505L106.964 104.922L126.825 101.287L131.5 132.995L111.639 136.362L116.223 165.395L76.547 171.925L71.9638 143.711L6.4235 154.506L1 120.815L48.849 19.6498ZM63.164 48.9341L32.7771 121.885L71.7652 115.276L63.164 48.9341Z" fill="black" fill-opacity="0.2"/>
<path id="Vector_2" d="M43.7271 18.7992L87.3374 11.425L102.573 106.371L122.62 102.985L127 130.266L106.953 133.653L111.579 162.848L75.6484 168.925L71.0221 139.729L4.86647 150.964L-0.5 117.512L43.7271 18.7992ZM57.9606 45.7006L27.2885 119.062L66.6426 112.416L57.9606 45.7006Z" fill="#E0E1E8"/>
<path id="Vector_3" d="M406.28 17.425L449.274 24.0539L430.658 115.288L450 119.03L443.65 149.431L424.463 145.467L418.979 173.425L380.588 165.258L385.732 138.061L322.5 124.692L328.819 92.2296L406.28 17.425ZM409.539 49.0469L357.507 104.456L395.187 112.291L409.539 49.0469Z" fill="black" fill-opacity="0.2"/>
<path id="Vector_4" d="M402.627 15.925L444.147 24.5163L426.401 115.072L445.5 119.02L440.395 145.031L421.295 141.082L415.836 168.925L381.59 161.85L387.049 134.007L324 120.978L330.259 89.0612L402.627 15.925ZM406.487 45.0626L354.694 100.242L392.247 107.997L406.487 45.0626Z" fill="#E0E1E8"/>
<path id="Vector_5" d="M223.5 142C258.083 142 286.118 113.527 286.118 78.4035C286.118 43.28 258.083 14.8069 223.5 14.8069C188.917 14.8069 160.882 43.28 160.882 78.4035C160.882 113.527 188.917 142 223.5 142Z" fill="#E0E1E8"/>
<path id="Vector_6" d="M291.989 32.4183C297.392 32.4183 301.773 28.0378 301.773 22.6342C301.773 17.2306 297.392 12.8501 291.989 12.8501C286.585 12.8501 282.205 17.2306 282.205 22.6342C282.205 28.0378 286.585 32.4183 291.989 32.4183Z" fill="url(#paint1_linear_119_5140)"/>
<path id="Vector_7" opacity="0.5" d="M202.953 59.8137C208.897 59.8137 213.716 54.9952 213.716 49.0512C213.716 43.1072 208.897 38.2887 202.953 38.2887C197.009 38.2887 192.191 43.1072 192.191 49.0512C192.191 54.9952 197.009 59.8137 202.953 59.8137Z" fill="url(#paint2_linear_119_5140)"/>
<path id="Vector_8" opacity="0.5" d="M187.299 110.691C191.082 110.691 194.148 107.625 194.148 103.842C194.148 100.06 191.082 96.9932 187.299 96.9932C183.517 96.9932 180.45 100.06 180.45 103.842C180.45 107.625 183.517 110.691 187.299 110.691Z" fill="url(#paint3_linear_119_5140)"/>
<path id="Vector_9" opacity="0.5" d="M259.916 118.518C258.412 118.526 256.948 119.042 255.737 119.99C254.526 120.938 253.63 122.271 253.179 123.795C252.728 125.319 252.744 126.956 253.226 128.47C253.708 129.983 254.63 131.295 255.859 132.216C259.713 129.675 263.297 126.7 266.55 123.343C266.035 121.919 265.126 120.695 263.941 119.834C262.756 118.972 261.353 118.513 259.916 118.518Z" fill="url(#paint4_linear_119_5140)"/>
<path id="Vector_10" opacity="0.5" d="M249.917 98.95C259.103 98.95 266.55 91.0651 266.55 81.3387C266.55 71.6122 259.103 63.7273 249.917 63.7273C240.731 63.7273 233.284 71.6122 233.284 81.3387C233.284 91.0651 240.731 98.95 249.917 98.95Z" fill="url(#paint5_linear_119_5140)"/>
<path id="Vector_11" d="M290.451 70.0285C302.341 69.762 309.915 71.361 310.89 75.0305C313.256 83.7841 277.192 100.922 230.337 113.345C183.483 125.768 143.56 128.721 141.111 119.967C140.032 116.01 146.859 110.311 159.019 104.12" stroke="black" stroke-opacity="0.1" stroke-width="4" stroke-miterlimit="10" stroke-linecap="round"/>
</g>
<defs>
<linearGradient id="paint0_linear_119_5140" x1="225" y1="240" x2="225" y2="179.925" gradientUnits="userSpaceOnUse">
<stop stop-color="#C5C5C5" stop-opacity="0"/>
<stop offset="1" stop-color="#C5C5C5" stop-opacity="0.2"/>
</linearGradient>
<linearGradient id="paint1_linear_119_5140" x1="292.037" y1="31.0572" x2="293.289" y2="12.9256" gradientUnits="userSpaceOnUse">
<stop stop-color="#C5C5C5" stop-opacity="0"/>
<stop offset="1" stop-color="#C5C5C5"/>
</linearGradient>
<linearGradient id="paint2_linear_119_5140" x1="203.007" y1="58.3165" x2="204.384" y2="38.3717" gradientUnits="userSpaceOnUse">
<stop stop-color="#C5C5C5" stop-opacity="0"/>
<stop offset="1" stop-color="#C5C5C5"/>
</linearGradient>
<linearGradient id="paint3_linear_119_5140" x1="187.333" y1="109.738" x2="188.209" y2="97.046" gradientUnits="userSpaceOnUse">
<stop stop-color="#E2E4ED" stop-opacity="0"/>
<stop offset="1" stop-color="#C7CCE0" stop-opacity="0.48"/>
</linearGradient>
<linearGradient id="paint4_linear_119_5140" x1="259.735" y1="131.263" x2="260.611" y2="118.571" gradientUnits="userSpaceOnUse">
<stop stop-color="#C5C5C5" stop-opacity="0"/>
<stop offset="1" stop-color="#C5C5C5"/>
</linearGradient>
<linearGradient id="paint5_linear_119_5140" x1="250" y1="96.5" x2="252.384" y2="63.8819" gradientUnits="userSpaceOnUse">
<stop stop-color="#C5C5C5" stop-opacity="0"/>
<stop offset="1" stop-color="#C5C5C5"/>
</linearGradient>
<clipPath id="clip0_119_5140">
<rect width="450" height="240" fill="white"/>
</clipPath>
</defs>
</svg>
