<svg width="200" height="120" viewBox="0 0 200 120" fill="none" xmlns="http://www.w3.org/2000/svg">
<g id="&#229;&#155;&#190;&#231;&#137;&#135;">
<rect id="Rectangle 12" width="200" height="120" fill="#F2F2F2"/>
<g id="YLIU">
<path d="M81.8507 61.791L76 52H80.4776L83.6418 58.4876H83.7612L86.9254 52H91.403L85.5522 61.791V67.7214H81.8507V61.791Z" fill="black" fill-opacity="0.2"/>
<path d="M96.5381 52V64.3781H103.742V67.7214H92.8366V52H96.5381Z" fill="black" fill-opacity="0.2"/>
<path d="M109.267 52V67.7214H105.566V52H109.267Z" fill="black" fill-opacity="0.2"/>
<path d="M118.311 64.5373C119.2 64.5373 119.883 64.2852 120.361 63.7811C120.852 63.2637 121.097 62.4876 121.097 61.4527V52H124.799V61.592C124.799 63.6352 124.222 65.2139 123.067 66.3284C121.913 67.4428 120.328 68 118.311 68C116.295 68 114.709 67.4428 113.555 66.3284C112.401 65.2139 111.824 63.6352 111.824 61.592V52H115.525V61.3731C115.525 62.4345 115.771 63.2305 116.262 63.7612C116.752 64.2786 117.436 64.5373 118.311 64.5373Z" fill="black" fill-opacity="0.2"/>
</g>
</g>
</svg>
