<svg width="20" height="20" viewBox="0 0 20 20" fill="none" xmlns="http://www.w3.org/2000/svg">
<g id="ic_edit">
<g id="Union">
<path fill-rule="evenodd" clip-rule="evenodd" d="M13.8694 1.83723C13.6935 1.66128 13.4549 1.56245 13.2062 1.5625C12.9574 1.56255 12.7188 1.66147 12.543 1.83748L3.92008 10.4708C3.74451 10.6466 3.64589 10.8848 3.64589 11.1333V14.1667C3.64589 14.6844 4.06562 15.1042 4.58339 15.1042H7.63222C7.88093 15.1042 8.11945 15.0053 8.29528 14.8294L16.9131 6.20781C17.279 5.84172 17.279 5.24836 16.9131 4.88227L13.8694 1.83723ZM5.52089 11.5213L13.2066 3.82637L14.9245 5.54504L7.24378 13.2292H5.52089V11.5213Z" fill="#0F7AE5"/>
<path d="M2.91675 16.5625C2.39898 16.5625 1.97925 16.9822 1.97925 17.5C1.97925 18.0178 2.39898 18.4375 2.91675 18.4375H17.9167C18.4345 18.4375 18.8542 18.0178 18.8542 17.5C18.8542 16.9822 18.4345 16.5625 17.9167 16.5625H2.91675Z" fill="#0F7AE5"/>
</g>
</g>
</svg>
