<svg width="20" height="20" viewBox="0 0 20 20" fill="none" xmlns="http://www.w3.org/2000/svg">
<g id="ic_envelopes">
<path id="Union" fill-rule="evenodd" clip-rule="evenodd" d="M2.39575 1.66675C2.39575 1.14898 2.81549 0.729248 3.33325 0.729248H16.6666C17.1844 0.729248 17.6041 1.14898 17.6041 1.66675V18.3334C17.6041 18.8512 17.1844 19.2709 16.6666 19.2709H3.33325C2.81549 19.2709 2.39575 18.8512 2.39575 18.3334V1.66675ZM15.7291 2.60425V3.87064C14.4185 5.71837 13.2549 6.8789 12.1134 7.51936C11.598 6.93276 10.8422 6.56253 9.99993 6.56253C9.17593 6.56253 8.43469 6.91689 7.92029 7.48152C6.76311 6.84856 5.5801 5.71211 4.27075 3.87034V2.60425H15.7291ZM7.19177 9.21755C6.17231 8.69232 5.21232 7.91141 4.27075 6.8755V17.3959H15.7291V6.89462C14.7922 7.94199 13.8356 8.74225 12.8106 9.27343C12.8118 9.30715 12.8124 9.34102 12.8124 9.37503C12.8124 10.9283 11.5532 12.1875 9.99993 12.1875C8.44662 12.1875 7.18743 10.9283 7.18743 9.37503C7.18743 9.32218 7.18889 9.26968 7.19177 9.21755ZM9.06243 9.37503C9.06243 8.85725 9.48216 8.43753 9.99993 8.43753C10.5177 8.43753 10.9374 8.85725 10.9374 9.37503C10.9374 9.8928 10.5177 10.3125 9.99993 10.3125C9.48216 10.3125 9.06243 9.8928 9.06243 9.37503Z" fill="#FF3509"/>
</g>
</svg>
