<svg width="20" height="20" viewBox="0 0 20 20" fill="none" xmlns="http://www.w3.org/2000/svg">
<g id="ic_qq">
<g id="Group 13">
<path id="Vector" d="M9.55772 18.7875C7.99137 18.7875 6.55712 18.2588 5.61354 17.4844C5.14175 17.6166 4.53785 17.8433 4.16042 18.1265C3.8396 18.3721 3.87734 18.6176 3.93396 18.712C4.19816 19.1464 8.34993 18.9953 9.55772 18.8631V18.7875Z" fill="#F1A81A"/>
<path id="Vector_2" d="M9.55786 18.7875C11.1224 18.7875 12.5549 18.2588 13.4974 17.4844C13.9686 17.6166 14.5718 17.8433 14.9488 18.1265C15.2692 18.3721 15.2315 18.6176 15.175 18.712C14.9111 19.1464 10.7642 18.9953 9.55786 18.8631V18.7875Z" fill="#F1A81A"/>
<path id="Vector_3" d="M9.57659 9.3924C12.161 9.37354 14.236 8.8832 14.9528 8.67575C15.1226 8.63803 15.2169 8.54373 15.2169 8.54373C15.2169 8.52488 15.2358 8.12883 15.2358 7.92138C15.2358 4.47012 13.5946 1 9.59546 1C5.57741 1 3.9551 4.47012 3.9551 7.92138C3.9551 8.12883 3.97397 8.52488 3.97397 8.54373C3.97397 8.54373 4.04942 8.61917 4.18147 8.65689C4.82285 8.84548 6.93562 9.35469 9.59546 9.37355H9.57659V9.3924ZM16.6129 12.2779C16.4431 11.7687 16.2356 11.1652 16.0092 10.5805C16.0092 10.5805 15.8772 10.5617 15.8206 10.5805C13.821 11.1652 11.4253 11.5235 9.57659 11.5047H9.55772C7.72791 11.5235 5.33218 11.1652 3.35145 10.5994C3.276 10.5805 3.12509 10.5805 3.12509 10.5805C2.89872 11.1652 2.69121 11.7687 2.52144 12.2779C1.74801 14.7485 2.0121 15.7669 2.20075 15.7857C2.59689 15.8423 3.78533 13.9375 3.78533 13.9375C3.78533 15.88 5.53968 18.8409 9.53886 18.8598H9.65204C13.6512 18.8409 15.4056 15.8612 15.4056 13.9375C15.4056 13.9375 16.5752 15.8423 16.9902 15.7857C17.1222 15.748 17.3863 14.7296 16.6129 12.2779Z" fill="#040000"/>
<path id="Vector_4" d="M8.1407 6.09261C7.59374 6.11147 7.12222 5.48914 7.10336 4.71594C7.06564 3.92388 7.49944 3.26383 8.02754 3.24498C8.57449 3.22612 9.02715 3.84845 9.06487 4.62165C9.10259 5.41371 8.68766 6.07375 8.1407 6.09261ZM12.026 4.71594C11.9883 5.508 11.5356 6.13033 10.9887 6.09261C10.4417 6.07375 10.0268 5.41371 10.0645 4.62165C10.1022 3.82959 10.5549 3.20726 11.1018 3.24498C11.6488 3.26383 12.0637 3.92388 12.026 4.71594Z" fill="white"/>
<path id="Vector_5" d="M13.0098 7.20714C12.8589 6.88653 11.4065 6.5282 9.57684 6.5282H9.55798C7.74721 6.5282 6.27596 6.88653 6.12506 7.20714C6.12506 7.226 6.1062 7.24486 6.1062 7.24486C6.1062 7.26372 6.1062 7.28258 6.12506 7.30144C6.23823 7.47118 7.87925 8.35758 9.53912 8.35758H9.55798C11.2179 8.35758 12.8589 7.47118 12.972 7.30144C12.9909 7.28258 12.9909 7.26372 12.9909 7.24486C13.0098 7.24486 13.0098 7.226 13.0098 7.20714Z" fill="#F1A81A"/>
<path id="Vector_6" d="M8.80018 4.73596C8.81907 5.05523 8.64906 5.31816 8.42239 5.35572C8.19572 5.39328 7.96905 5.16791 7.95016 4.84864C7.93127 4.52937 8.10128 4.26644 8.32795 4.22888C8.57351 4.19132 8.78129 4.41669 8.80018 4.73596ZM10.3113 4.82986C10.368 4.73596 10.6891 4.28522 11.3691 4.45425C11.5391 4.49181 11.6335 4.56693 11.6524 4.58571C11.6713 4.62327 11.6902 4.67962 11.6524 4.75474C11.5958 4.8862 11.5013 4.8862 11.4258 4.86742C11.388 4.84864 10.9158 4.52937 10.4813 4.99889C10.4435 5.03645 10.4058 5.03645 10.3491 4.99889C10.2924 4.96133 10.2735 4.8862 10.3113 4.82986Z" fill="#040000"/>
<path id="Vector_7" d="M9.57662 11.3949H9.55775C8.31274 11.4138 6.78477 11.2441 5.31339 10.9614C5.18134 11.6965 5.10589 12.6011 5.18134 13.6943C5.35112 16.446 6.99227 18.18 9.52002 18.1988H9.63321C12.161 18.18 13.8021 16.446 13.9719 13.6943C14.0285 12.6011 13.953 11.6965 13.8398 10.9614C12.3496 11.2441 10.8216 11.4138 9.57662 11.3949Z" fill="white"/>
<g id="Group">
<path id="Vector_8" d="M6.0105 11.1477V13.8638C6.0105 13.8638 7.25536 14.109 8.50022 13.9392V11.4306C7.70804 11.3929 6.85927 11.2986 6.0105 11.1477Z" fill="#DC2728"/>
<path id="Vector_9" d="M15.1962 8.54486C15.1962 8.54486 12.7819 9.29933 9.57541 9.33705H9.55655C6.35008 9.31819 3.9358 8.56372 3.9358 8.54486L3.12476 10.5631C5.14294 11.1666 7.67039 11.5627 9.55655 11.5439H9.57541C11.4804 11.5627 13.989 11.1666 16.0072 10.5631L15.1962 8.54486Z" fill="#DC2728"/>
</g>
</g>
</g>
</svg>
