<svg width="32" height="32" viewBox="0 0 32 32" fill="none" xmlns="http://www.w3.org/2000/svg">
<g id="ic_up">
<path id="Union" fill-rule="evenodd" clip-rule="evenodd" d="M15.4258 2.61382C15.2489 2.68702 15.0832 2.79552 14.9393 2.93934L6.93934 10.9393C6.35355 11.5251 6.35355 12.4749 6.93934 13.0607C7.52513 13.6464 8.47487 13.6464 9.06066 13.0607L14.5 7.62132V28C14.5 28.8284 15.1716 29.5 16 29.5C16.8284 29.5 17.5 28.8284 17.5 28V7.62132L22.9393 13.0607C23.5251 13.6464 24.4749 13.6464 25.0607 13.0607C25.6464 12.4749 25.6464 11.5251 25.0607 10.9393L17.0607 2.93934C16.7689 2.64759 16.3869 2.50115 16.0045 2.50001C16.003 2.5 16.0015 2.5 16 2.5C15.9985 2.5 15.997 2.5 15.9955 2.50001C15.7938 2.5006 15.6014 2.54102 15.4258 2.61382Z" fill="white"/>
</g>
</svg>
