<svg width="20" height="20" viewBox="0 0 20 20" fill="none" xmlns="http://www.w3.org/2000/svg">
<g id="ic_wechat">
<g id="Union">
<path fill-rule="evenodd" clip-rule="evenodd" d="M0 7.90549C0 4.55187 3.23694 1.83331 7.22894 1.83331C10.8359 1.83331 13.7278 4.05183 14.2745 6.95374C14.2316 6.95209 14.1993 6.95044 14.1704 6.94897C14.1118 6.94598 14.0678 6.94374 13.9795 6.94374C10.3375 6.94374 7.38562 9.42395 7.38562 12.4825C7.38562 12.9992 7.47229 13.4976 7.62897 13.971C7.49729 13.9777 7.36561 13.981 7.23227 13.981C6.4072 13.981 5.61047 13.861 4.87207 13.6476C4.80373 13.6276 4.73206 13.616 4.65872 13.616C4.52038 13.616 4.3937 13.6593 4.27536 13.7276L2.69189 14.6494C2.64855 14.6744 2.60522 14.6944 2.55355 14.6944C2.4202 14.6944 2.31186 14.5844 2.31186 14.451C2.31186 14.4051 2.3248 14.361 2.33761 14.3174C2.34199 14.3025 2.34637 14.2876 2.3502 14.2727C2.35591 14.2487 2.44923 13.8977 2.54656 13.5317C2.59131 13.3634 2.6369 13.1919 2.67522 13.0476C2.68856 12.9959 2.70022 12.9459 2.70022 12.8926C2.70022 12.7276 2.62022 12.5842 2.49854 12.4959C0.973414 11.3824 0 9.73564 0 7.90549ZM8.78407 5.96199C8.78407 6.4387 9.16743 6.82373 9.63914 6.82373C10.1108 6.82373 10.4942 6.4387 10.4942 5.96199C10.4942 5.48528 10.1108 5.10025 9.63914 5.10025C9.16743 5.10025 8.78407 5.48528 8.78407 5.96199ZM3.96533 5.96199C3.96533 6.4387 4.3487 6.82373 4.8204 6.82373C5.29211 6.82373 5.67547 6.4387 5.67547 5.96199C5.67547 5.48528 5.29211 5.10025 4.8204 5.10025C4.3487 5.10025 3.96533 5.48528 3.96533 5.96199Z" fill="#2AAE67"/>
<path fill-rule="evenodd" clip-rule="evenodd" d="M20 12.4792C20 14.0043 19.1883 15.3761 17.9182 16.3045L17.9198 16.3061C17.8182 16.3795 17.7515 16.4995 17.7515 16.6362C17.7515 16.6795 17.7615 16.7212 17.7731 16.7645C17.823 16.9508 17.8873 17.1928 17.9408 17.3945C17.9965 17.6041 18.0406 17.7702 18.0448 17.7846C18.0481 17.7982 18.0521 17.812 18.0561 17.8258C18.0662 17.8611 18.0765 17.897 18.0765 17.9329C18.0765 18.0446 17.9865 18.1346 17.8748 18.1346C17.8315 18.1346 17.7948 18.118 17.7581 18.0963L16.4397 17.3296C16.3397 17.2712 16.2347 17.2362 16.1197 17.2362C16.058 17.2362 15.9997 17.2462 15.943 17.2629C15.3279 17.4412 14.6629 17.5396 13.9762 17.5396C10.6476 17.5396 7.95066 15.2744 7.95066 12.4792C7.95066 9.68393 10.6492 7.41874 13.9762 7.41874C17.3031 7.41874 20 9.68393 20 12.4792ZM15.2329 10.8607C15.2329 11.2791 15.5696 11.6191 15.9847 11.6191C16.3997 11.6191 16.7364 11.2791 16.7364 10.8607C16.7364 10.4423 16.3997 10.1023 15.9847 10.1023C15.5696 10.1023 15.2329 10.4423 15.2329 10.8607ZM11.2159 10.8607C11.2159 11.2791 11.5526 11.6191 11.9677 11.6191C12.3827 11.6191 12.7194 11.2791 12.7194 10.8607C12.7194 10.4423 12.3827 10.1023 11.9677 10.1023C11.5526 10.1023 11.2159 10.4423 11.2159 10.8607Z" fill="#2AAE67"/>
</g>
</g>
</svg>
