<svg width="150" height="100" viewBox="0 0 150 100" fill="none" xmlns="http://www.w3.org/2000/svg">
<g opacity="0.3">
<path opacity="0.8" d="M30.5801 75.2287L67.3003 58.067V15L30.5801 27.0235V75.2287Z" fill="url(#paint0_linear_410_2385)"/>
<path opacity="0.8" d="M114.706 75.2605L67.2998 60.4892V15L114.706 27.0235V75.2605Z" fill="url(#paint1_linear_410_2385)"/>
<path d="M77.9866 90L30.5801 75.2287V27.0234L77.9866 39.2375V90Z" fill="url(#paint2_linear_410_2385)"/>
<path d="M77.9863 90L114.707 75.2604V27.0234L77.9863 39.2375V90Z" fill="url(#paint3_linear_410_2385)"/>
<path d="M78.0164 39.2376L30.6548 27.1982L15.8125 38.289C15.4803 38.5372 15.5772 39.0586 15.9763 39.1709L60.0351 51.5683C60.3263 51.6503 60.6389 51.596 60.8855 51.4207L78.0164 39.2376Z" fill="url(#paint4_linear_410_2385)"/>
<path d="M78.0312 39.0867L96.3223 49.2984C97.041 49.6997 97.8929 49.788 98.6786 49.5427L133.881 38.5545C134.301 38.4233 134.359 37.8519 133.973 37.6393L114.706 27.0234L78.0312 39.0867Z" fill="url(#paint5_linear_410_2385)"/>
</g>
<path fill-rule="evenodd" clip-rule="evenodd" d="M72.75 1.3125C64.7764 1.3125 58.3125 7.77642 58.3125 15.75C58.3125 23.7236 64.7764 30.1875 72.75 30.1875C76.1287 30.1875 79.2364 29.0269 81.696 27.0825L87.0874 32.4738C87.7464 33.1329 88.8148 33.1329 89.4738 32.4738C90.1329 31.8148 90.1329 30.7464 89.4738 30.0874L84.0825 24.696C86.0269 22.2364 87.1875 19.1287 87.1875 15.75C87.1875 7.77642 80.7236 1.3125 72.75 1.3125ZM61.6875 15.75C61.6875 9.64038 66.6404 4.6875 72.75 4.6875C78.8596 4.6875 83.8125 9.64038 83.8125 15.75C83.8125 21.8596 78.8596 26.8125 72.75 26.8125C66.6404 26.8125 61.6875 21.8596 61.6875 15.75Z" fill="#999999" fill-opacity="0.7"/>
<path d="M150 100H0C17.2255 80.5502 44.4116 68 75 68C105.588 68 132.774 80.5502 150 100Z" fill="url(#paint6_linear_410_2385)"/>
<defs>
<linearGradient id="paint0_linear_410_2385" x1="48.9402" y1="15" x2="48.9402" y2="75.2287" gradientUnits="userSpaceOnUse">
<stop stop-color="#555555" stop-opacity="0.8"/>
<stop offset="1" stop-color="#B3A8A8" stop-opacity="0.92"/>
</linearGradient>
<linearGradient id="paint1_linear_410_2385" x1="91.0031" y1="15" x2="91.0031" y2="75.2605" gradientUnits="userSpaceOnUse">
<stop stop-color="#333333"/>
<stop offset="1" stop-opacity="0.9"/>
</linearGradient>
<linearGradient id="paint2_linear_410_2385" x1="47.3489" y1="45.388" x2="65.5765" y2="52.9595" gradientUnits="userSpaceOnUse">
<stop stop-color="#444444" stop-opacity="0.8"/>
<stop offset="1" stop-color="#666666" stop-opacity="0.9"/>
</linearGradient>
<linearGradient id="paint3_linear_410_2385" x1="90.9752" y1="45.388" x2="105.977" y2="50.2149" gradientUnits="userSpaceOnUse">
<stop stop-color="#666666" stop-opacity="0.7"/>
<stop offset="1" stop-color="#8A8A8A" stop-opacity="0.9"/>
</linearGradient>
<linearGradient id="paint4_linear_410_2385" x1="40.4793" y1="26.952" x2="34.0858" y2="44.3999" gradientUnits="userSpaceOnUse">
<stop stop-color="#999999" stop-opacity="0.6"/>
<stop offset="1" stop-color="#BBBBBB"/>
</linearGradient>
<linearGradient id="paint5_linear_410_2385" x1="98.1825" y1="33.7023" x2="105.128" y2="45.2688" gradientUnits="userSpaceOnUse">
<stop stop-color="#999999"/>
<stop offset="1" stop-color="#BBBBBB" stop-opacity="0.7"/>
</linearGradient>
<linearGradient id="paint6_linear_410_2385" x1="75" y1="68" x2="75" y2="100" gradientUnits="userSpaceOnUse">
<stop stop-opacity="0.2"/>
<stop offset="1" stop-opacity="0"/>
</linearGradient>
</defs>
</svg>
