<svg width="24" height="24" viewBox="0 0 24 24" fill="none" xmlns="http://www.w3.org/2000/svg">
<g id="logo_juejin" clip-path="url(#clip0_116_1342)">
<g id="juejin">
<path fill-rule="evenodd" clip-rule="evenodd" d="M12 24C18.6274 24 24 18.6274 24 12C24 5.37258 18.6274 0 12 0C5.37258 0 0 5.37258 0 12C0 18.6274 5.37258 24 12 24ZM12.2448 8.2831L14.4232 6.55117L12.2448 4.80385L12.2429 4.8L10.0684 6.54732L12.2429 8.28117L12.2448 8.2831ZM12.2445 13.7463H12.2464L17.8656 9.31254L16.3415 8.08865L12.2464 11.3216H12.2445L12.2426 11.3235L8.14757 8.0925L6.62539 9.3164L12.2426 13.7482L12.2445 13.7463ZM12.2445 16.7753L12.2426 16.7772L4.72217 10.8444L3.2 12.0664L3.34625 12.1838L12.2445 19.2L21.2909 12.0645L19.7669 10.8406L12.2445 16.7753Z" fill="url(#paint0_linear_116_1342)"/>
<path fill-rule="evenodd" clip-rule="evenodd" d="M12 24C18.6274 24 24 18.6274 24 12C24 5.37258 18.6274 0 12 0C5.37258 0 0 5.37258 0 12C0 18.6274 5.37258 24 12 24ZM12.2448 8.2831L14.4232 6.55117L12.2448 4.80385L12.2429 4.8L10.0684 6.54732L12.2429 8.28117L12.2448 8.2831ZM12.2445 13.7463H12.2464L17.8656 9.31254L16.3415 8.08865L12.2464 11.3216H12.2445L12.2426 11.3235L8.14757 8.0925L6.62539 9.3164L12.2426 13.7482L12.2445 13.7463ZM12.2445 16.7753L12.2426 16.7772L4.72217 10.8444L3.2 12.0664L3.34625 12.1838L12.2445 19.2L21.2909 12.0645L19.7669 10.8406L12.2445 16.7753Z" fill="#CCCCCC"/>
</g>
</g>
<defs>
<linearGradient id="paint0_linear_116_1342" x1="24" y1="0" x2="0" y2="24" gradientUnits="userSpaceOnUse">
<stop stop-color="#1E80FE"/>
<stop offset="1" stop-color="#1E80FE"/>
</linearGradient>
<clipPath id="clip0_116_1342">
<rect width="24" height="24" fill="white"/>
</clipPath>
</defs>
</svg>
