<svg width="24" height="24" viewBox="0 0 24 24" fill="none" xmlns="http://www.w3.org/2000/svg">
<g id="logo_zhihu" clip-path="url(#clip0_116_1338)">
<g id="zhihu">
<path d="M8.84909 15.3225L9.65894 14.8071L10.4786 14.8074V9.32882H8.18695V14.8074H8.76966L8.84909 15.3225Z" fill="url(#paint0_linear_116_1338)"/>
<path d="M8.84909 15.3225L9.65894 14.8071L10.4786 14.8074V9.32882H8.18695V14.8074H8.76966L8.84909 15.3225Z" fill="#CCCCCC"/>
<path fill-rule="evenodd" clip-rule="evenodd" d="M12 24C18.6274 24 24 18.6274 24 12C24 5.37258 18.6274 0 12 0C5.37258 0 0 5.37258 0 12C0 18.6274 5.37258 24 12 24ZM4.97392 11.7054H6.48749C6.54441 11.705 6.60085 11.7159 6.65358 11.7376C6.7063 11.7593 6.75427 11.7913 6.79473 11.8318C6.83493 11.8719 6.8668 11.9197 6.88845 11.9724C6.9101 12.0252 6.9211 12.0817 6.9208 12.1388V12.6068H4.90395C4.83426 13.2129 4.7075 13.8109 4.52539 14.3928C4.32293 15.0462 3.9028 15.9076 3.43365 16.3489C2.65794 17.076 1.6 16.6747 1.6 16.6747C1.97604 16.3596 2.33125 16.0199 2.66335 15.6579C3.10817 15.125 3.45316 14.5147 3.68141 13.8569C3.81223 13.4519 3.90037 13.0342 3.94437 12.6105H1.73824C1.73832 12.4914 1.76174 12.3736 1.80717 12.2637C1.85259 12.1538 1.91912 12.0542 2.0029 11.9704C2.17291 11.8007 2.40275 11.7057 2.64273 11.7057H4.03529C4.03781 11.6623 4.04073 11.6189 4.04366 11.5752C4.05177 11.4545 4.05997 11.3324 4.05997 11.207V9.32847H3.27107L3.24065 9.43094C3.1139 9.90263 2.92462 10.2131 2.5464 10.4157C2.28148 10.5486 1.99041 10.6198 1.69464 10.624C1.69464 10.624 2.08807 9.821 2.25099 9.36468C2.30139 9.22848 2.36346 9.04839 2.43408 8.84349C2.51168 8.61831 2.59962 8.36315 2.69377 8.1033C2.84891 7.67157 2.96451 7.57525 3.15717 7.43863C3.39916 7.27817 3.68337 7.19509 3.97276 7.20022C3.97276 7.20022 3.67566 8.05617 3.58305 8.33625C3.57438 8.36066 3.5657 8.38823 3.55703 8.4158L3.55466 8.42334H6.2492C6.37161 8.42323 6.48914 8.47182 6.57638 8.5586C6.61934 8.6013 6.65353 8.65216 6.67696 8.70826C6.7004 8.76435 6.71262 8.82458 6.71293 8.88547V9.32882H4.9871V11.2074C4.98617 11.2866 4.9833 11.3643 4.98048 11.4408C4.97717 11.5305 4.97392 11.6186 4.97392 11.7054ZM7.25576 8.42334H11.4189V15.7183H9.79144L8.41206 16.5968L8.27585 15.7183H7.25576V8.42334ZM5.40924 13.5785L4.62778 14.0878L6.33063 16.6351C6.44804 16.3973 6.52483 16.1412 6.55777 15.8775C6.6147 15.6272 6.58113 15.3645 6.46313 15.137L5.40924 13.5785ZM18.1578 8.85372V12.0483H22.4V12.518C22.4 12.6337 22.354 12.7444 22.2722 12.826C22.1911 12.9077 22.0803 12.9538 21.9647 12.9538H18.152V15.552C18.152 16.4893 17.6088 16.7488 17.1492 16.7714C16.8407 16.8087 16.5278 16.7764 16.2332 16.6768C16.0514 16.5905 15.8898 16.4663 15.759 16.3123C15.6285 16.1589 15.5321 15.9791 15.4761 15.785H16.801C17.0603 15.7774 17.2171 15.6733 17.2171 15.3703V12.9538H13.8016C13.5622 12.9539 13.3324 12.8585 13.1621 12.6884C12.9924 12.5186 12.8975 12.2884 12.8975 12.0483H17.2171V8.90495C16.0686 8.9596 14.9464 9.01254 14.1764 9.04499C14.0598 9.05015 13.9432 9.03146 13.8339 8.99002C13.7245 8.94858 13.6246 8.88526 13.54 8.80385C13.4557 8.72329 13.3886 8.62617 13.3428 8.51845C13.297 8.41072 13.2734 8.29468 13.2737 8.17743C13.2737 8.17743 15.2986 8.09785 17.5693 7.93151L17.6988 7.92202C18.8935 7.83453 19.304 7.80447 20.2071 7.69857C20.6938 7.64766 21.1767 7.56471 21.6527 7.45025C21.7963 7.41234 21.8437 7.55443 21.8683 7.63982C21.9346 7.85363 21.7662 8.53538 21.6354 8.67167L21.3478 8.68874C20.8577 8.71538 19.5709 8.7837 18.1578 8.85372ZM14.9479 9.67941C15.0354 9.73369 15.1114 9.80491 15.1715 9.88898L16.1463 11.2487L15.3892 11.802L13.951 9.80393L14.0781 9.71103C14.2471 9.58908 14.4568 9.53938 14.6618 9.57269C14.7632 9.58887 14.8605 9.62513 14.9479 9.67941ZM20.1523 9.82306L19.0961 11.2224L19.8532 11.7904L21.3799 9.76602L21.2532 9.6714C21.171 9.60821 21.0773 9.56204 20.9774 9.53555C20.8775 9.50906 20.7735 9.50276 20.6712 9.51702C20.4648 9.54556 20.2785 9.65561 20.1523 9.82306Z" fill="url(#paint1_linear_116_1338)"/>
<path fill-rule="evenodd" clip-rule="evenodd" d="M12 24C18.6274 24 24 18.6274 24 12C24 5.37258 18.6274 0 12 0C5.37258 0 0 5.37258 0 12C0 18.6274 5.37258 24 12 24ZM4.97392 11.7054H6.48749C6.54441 11.705 6.60085 11.7159 6.65358 11.7376C6.7063 11.7593 6.75427 11.7913 6.79473 11.8318C6.83493 11.8719 6.8668 11.9197 6.88845 11.9724C6.9101 12.0252 6.9211 12.0817 6.9208 12.1388V12.6068H4.90395C4.83426 13.2129 4.7075 13.8109 4.52539 14.3928C4.32293 15.0462 3.9028 15.9076 3.43365 16.3489C2.65794 17.076 1.6 16.6747 1.6 16.6747C1.97604 16.3596 2.33125 16.0199 2.66335 15.6579C3.10817 15.125 3.45316 14.5147 3.68141 13.8569C3.81223 13.4519 3.90037 13.0342 3.94437 12.6105H1.73824C1.73832 12.4914 1.76174 12.3736 1.80717 12.2637C1.85259 12.1538 1.91912 12.0542 2.0029 11.9704C2.17291 11.8007 2.40275 11.7057 2.64273 11.7057H4.03529C4.03781 11.6623 4.04073 11.6189 4.04366 11.5752C4.05177 11.4545 4.05997 11.3324 4.05997 11.207V9.32847H3.27107L3.24065 9.43094C3.1139 9.90263 2.92462 10.2131 2.5464 10.4157C2.28148 10.5486 1.99041 10.6198 1.69464 10.624C1.69464 10.624 2.08807 9.821 2.25099 9.36468C2.30139 9.22848 2.36346 9.04839 2.43408 8.84349C2.51168 8.61831 2.59962 8.36315 2.69377 8.1033C2.84891 7.67157 2.96451 7.57525 3.15717 7.43863C3.39916 7.27817 3.68337 7.19509 3.97276 7.20022C3.97276 7.20022 3.67566 8.05617 3.58305 8.33625C3.57438 8.36066 3.5657 8.38823 3.55703 8.4158L3.55466 8.42334H6.2492C6.37161 8.42323 6.48914 8.47182 6.57638 8.5586C6.61934 8.6013 6.65353 8.65216 6.67696 8.70826C6.7004 8.76435 6.71262 8.82458 6.71293 8.88547V9.32882H4.9871V11.2074C4.98617 11.2866 4.9833 11.3643 4.98048 11.4408C4.97717 11.5305 4.97392 11.6186 4.97392 11.7054ZM7.25576 8.42334H11.4189V15.7183H9.79144L8.41206 16.5968L8.27585 15.7183H7.25576V8.42334ZM5.40924 13.5785L4.62778 14.0878L6.33063 16.6351C6.44804 16.3973 6.52483 16.1412 6.55777 15.8775C6.6147 15.6272 6.58113 15.3645 6.46313 15.137L5.40924 13.5785ZM18.1578 8.85372V12.0483H22.4V12.518C22.4 12.6337 22.354 12.7444 22.2722 12.826C22.1911 12.9077 22.0803 12.9538 21.9647 12.9538H18.152V15.552C18.152 16.4893 17.6088 16.7488 17.1492 16.7714C16.8407 16.8087 16.5278 16.7764 16.2332 16.6768C16.0514 16.5905 15.8898 16.4663 15.759 16.3123C15.6285 16.1589 15.5321 15.9791 15.4761 15.785H16.801C17.0603 15.7774 17.2171 15.6733 17.2171 15.3703V12.9538H13.8016C13.5622 12.9539 13.3324 12.8585 13.1621 12.6884C12.9924 12.5186 12.8975 12.2884 12.8975 12.0483H17.2171V8.90495C16.0686 8.9596 14.9464 9.01254 14.1764 9.04499C14.0598 9.05015 13.9432 9.03146 13.8339 8.99002C13.7245 8.94858 13.6246 8.88526 13.54 8.80385C13.4557 8.72329 13.3886 8.62617 13.3428 8.51845C13.297 8.41072 13.2734 8.29468 13.2737 8.17743C13.2737 8.17743 15.2986 8.09785 17.5693 7.93151L17.6988 7.92202C18.8935 7.83453 19.304 7.80447 20.2071 7.69857C20.6938 7.64766 21.1767 7.56471 21.6527 7.45025C21.7963 7.41234 21.8437 7.55443 21.8683 7.63982C21.9346 7.85363 21.7662 8.53538 21.6354 8.67167L21.3478 8.68874C20.8577 8.71538 19.5709 8.7837 18.1578 8.85372ZM14.9479 9.67941C15.0354 9.73369 15.1114 9.80491 15.1715 9.88898L16.1463 11.2487L15.3892 11.802L13.951 9.80393L14.0781 9.71103C14.2471 9.58908 14.4568 9.53938 14.6618 9.57269C14.7632 9.58887 14.8605 9.62513 14.9479 9.67941ZM20.1523 9.82306L19.0961 11.2224L19.8532 11.7904L21.3799 9.76602L21.2532 9.6714C21.171 9.60821 21.0773 9.56204 20.9774 9.53555C20.8775 9.50906 20.7735 9.50276 20.6712 9.51702C20.4648 9.54556 20.2785 9.65561 20.1523 9.82306Z" fill="#CCCCCC"/>
</g>
</g>
<defs>
<linearGradient id="paint0_linear_116_1338" x1="24" y1="0" x2="0" y2="24" gradientUnits="userSpaceOnUse">
<stop stop-color="#01A1FF"/>
<stop offset="1" stop-color="#0066FE"/>
</linearGradient>
<linearGradient id="paint1_linear_116_1338" x1="24" y1="0" x2="0" y2="24" gradientUnits="userSpaceOnUse">
<stop stop-color="#01A1FF"/>
<stop offset="1" stop-color="#0066FE"/>
</linearGradient>
<clipPath id="clip0_116_1338">
<rect width="24" height="24" fill="white"/>
</clipPath>
</defs>
</svg>
