<?xml version="1.0" standalone="no"?><!DOCTYPE svg PUBLIC "-//W3C//DTD SVG 1.1//EN" "http://www.w3.org/Graphics/SVG/1.1/DTD/svg11.dtd"><svg t="1699680563967" class="icon" viewBox="0 0 1316 1024" version="1.1" xmlns="http://www.w3.org/2000/svg" p-id="1470" xmlns:xlink="http://www.w3.org/1999/xlink" width="257.03125" height="200"><path d="M690.943634 717.513143l-412.708571-391.222857a83.876571 83.876571 0 0 0-23.168 17.536l-171.922286 180.388571-9.088-336.091428c-1.152-40.411429 31.451429-74.587429 71.899429-75.593143l304.347428-8.192 71.387429-75.483429-377.782857 10.24C62.280777 41.398857-2.066651 108.946286 0.109349 190.171429l11.008 409.380571 6.893714 251.52c2.194286 81.243429 70.107429 145.188571 151.734857 143.030857l265.453714-7.168 18.048-0.512 71.387429-75.483428 175.268571-184.978286-8.96-8.448zM933.357349 437.979429c61.257143 0 110.902857-49.371429 110.902857-110.262858 0-60.909714-49.755429-110.299429-110.902857-110.299428-61.165714 0-110.921143 49.389714-110.921143 110.281143 0 60.891429 49.627429 110.281143 110.921143 110.281143z" fill="#000000" opacity=".25" p-id="1471"></path><path d="M1182.591634 60.196571L816.328777 9.033143l-83.163428 62.537143L1172.351634 132.882286a74.057143 74.057143 0 0 1 63.067429 83.163428l-82.011429 587.574857-182.162285-239.872a90.331429 90.331429 0 0 0-126.025143-17.645714l-66.377143 49.883429 98.230857 129.993143-83.401143 63.067428-120.009143 90.697143-82.889143 62.427429 51.565715 7.168 408.338285 56.923428a147.181714 147.181714 0 0 0 165.796572-120.118857c0.512-1.664 0.768-3.456 1.024-5.248l91.355428-654.884571c11.117714-80.201143-45.293714-154.532571-126.281142-165.796572z" fill="#000000" opacity=".25" p-id="1472"></path></svg>